<svg xmlns="http://www.w3.org/2000/svg" width="16" height="16" viewBox="0 0 16 16"><title>static/images/icons/mask</title><path fill="#000" fill-rule="evenodd" d="M1 15.811V0h1.375v15.811H1Zm4.766-8.315c0-1.816 1.806-3.181 4.084-3.181 2.279 0 3.895 1.134 4.147 2.93h-1.354C12.391 6.183 11.341 5.49 9.84 5.49c-1.48 0-2.688.819-2.688 1.953 0 .934.735 1.47 2.247 1.826l1.554.368c2.183.525 3.244 1.407 3.244 3.044 0 1.953-1.9 3.318-4.368 3.318-2.467 0-4.178-1.165-4.41-3.024h1.429c.304 1.134 1.386 1.848 3.023 1.848 1.66 0 2.909-.85 2.909-2.037 0-.986-.704-1.564-2.216-1.92l-1.711-.41c-2.1-.504-3.087-1.365-3.087-2.96Z"/></svg>