<svg xmlns="http://www.w3.org/2000/svg" width="165" height="46" viewBox="0 0 165 46"><title>static/images/logo-white</title><path fill="#FFF" fill-rule="evenodd" d="M3.219 22.266c3.562.351 5.11 1.922 5.11 5.367v7.992c0 4.29 1.64 5.86 4.898 5.86h.585v1.57h-.68c-4.64 0-6.562-2.133-6.562-7.29v-7.148c0-3.89-1.336-5.25-5.11-5.25v-2.625c3.774 0 5.11-1.383 5.11-5.297v-6.14c0-5.086 1.875-7.125 6.563-7.125h.68v1.57h-.586c-3.375 0-4.899 1.406-4.899 5.648v7.008c0 3.446-1.547 5.04-5.11 5.39v.47ZM18.64 36V.703h3.07V36h-3.07Zm10.64-18.563c0-4.054 4.032-7.101 9.117-7.101 5.086 0 8.696 2.531 9.258 6.539h-3.023c-.563-2.367-2.906-3.914-6.258-3.914-3.305 0-6 1.828-6 4.36 0 2.085 1.64 3.28 5.016 4.077l3.468.82c4.875 1.173 7.243 3.141 7.243 6.798 0 4.359-4.243 7.406-9.75 7.406-5.508 0-9.329-2.602-9.844-6.75h3.187c.68 2.531 3.094 4.125 6.75 4.125 3.703 0 6.492-1.899 6.492-4.547 0-2.203-1.57-3.492-4.945-4.29l-3.82-.913c-4.688-1.125-6.89-3.047-6.89-6.61Zm40.524 6.375H54.43v-2.906h15.375v2.907Zm15.257 9.891c4.524 0 7.97-3.094 7.97-7.101v-2.954l-7.477.54c-4.29.304-6.352 1.898-6.352 4.78 0 2.907 2.461 4.735 5.86 4.735Zm-.515 2.719c-4.945 0-8.508-2.883-8.508-7.406 0-4.407 3.258-6.961 9.094-7.36l7.898-.515v-2.438c0-3.61-2.18-5.625-6.281-5.625-3.469 0-5.977 1.477-6.586 3.914h-3.117c.586-4.008 4.5-6.656 9.797-6.656 5.93 0 9.281 3.094 9.281 8.344V36h-2.953v-4.336h-.281c-1.547 3-4.641 4.758-8.344 4.758ZM113.867 33c5.063 0 8.203-3.914 8.203-9.89 0-6-3.21-10.008-8.203-10.008-5.039 0-8.086 3.96-8.086 9.96 0 5.977 3.047 9.938 8.086 9.938Zm.258 12.469c-5.79 0-9.633-2.578-10.29-6.516h3.259c.562 2.32 3.187 3.82 7.031 3.82 4.875 0 7.898-2.554 7.898-6.632v-5.672h-.304c-1.5 3.328-4.594 5.273-8.461 5.273-6.492 0-10.64-5.11-10.64-12.68 0-7.57 4.171-12.726 10.64-12.726 3.867 0 7.219 2.133 8.601 5.414h.282v-4.992h2.953v25.617c0 5.484-4.336 9.094-10.969 9.094Zm28.852-32.414c-4.594 0-7.782 3.398-8.063 8.601h15.727c-.07-5.203-3.094-8.601-7.664-8.601Zm7.359 16.71h3.117c-1.242 4.102-5.133 6.657-10.43 6.657-6.937 0-11.296-5.063-11.296-13.031 0-7.922 4.406-13.055 11.273-13.055 6.727 0 10.852 4.781 10.852 12.492v1.36H134.89v.14c.164 5.695 3.328 9.352 8.203 9.352 3.586 0 6.164-1.43 7.242-3.914Zm12.023-11.742a1.57 1.57 0 0 1-1.57-1.57c0-.844.703-1.547 1.57-1.547a1.56 1.56 0 0 1 1.547 1.547c0 .867-.703 1.57-1.547 1.57Zm-1.382 24.07h-1.57l2.226-10.429h1.922l-2.578 10.43Z"/></svg>